<mxfile host="app.diagrams.net" modified="2021-08-20T08:37:06.191Z" agent="5.0 (Macintosh; Intel Mac OS X 10_15_7) AppleWebKit/537.36 (KHTML, like Gecko) Chrome/92.0.4515.159 Safari/537.36" etag="YIx0BZ87nd6bzQCbwiAJ" version="14.9.8" type="github">
  <diagram id="SMh0m5qsnrAXxBr8gcz_" name="Page-1">
    <mxGraphModel dx="2516" dy="801" grid="1" gridSize="10" guides="1" tooltips="1" connect="1" arrows="1" fold="1" page="1" pageScale="1" pageWidth="850" pageHeight="1100" math="0" shadow="0">
      <root>
        <mxCell id="0" />
        <mxCell id="1" parent="0" />
        <mxCell id="IuaDVBjCy8m_1lPmM8kt-1" value="" style="rounded=1;whiteSpace=wrap;html=1;" parent="1" vertex="1">
          <mxGeometry x="230" y="190" width="120" height="60" as="geometry" />
        </mxCell>
        <mxCell id="IuaDVBjCy8m_1lPmM8kt-2" value="" style="rounded=0;whiteSpace=wrap;html=1;" parent="1" vertex="1">
          <mxGeometry x="340" y="370" width="120" height="60" as="geometry" />
        </mxCell>
        <mxCell id="IuaDVBjCy8m_1lPmM8kt-3" value="" style="shape=cylinder3;whiteSpace=wrap;html=1;boundedLbl=1;backgroundOutline=1;size=15;" parent="1" vertex="1">
          <mxGeometry x="580" y="280" width="60" height="80" as="geometry" />
        </mxCell>
        <mxCell id="41VKfbadY7B5GUpY9nV5-1" value="" style="shape=hexagon;perimeter=hexagonPerimeter2;whiteSpace=wrap;html=1;fixedSize=1;" parent="1" vertex="1">
          <mxGeometry x="110" y="350" width="120" height="80" as="geometry" />
        </mxCell>
        <mxCell id="41VKfbadY7B5GUpY9nV5-2" value="" style="triangle;whiteSpace=wrap;html=1;" parent="1" vertex="1">
          <mxGeometry x="270" y="470" width="60" height="80" as="geometry" />
        </mxCell>
        <mxCell id="41VKfbadY7B5GUpY9nV5-3" value="Vertical Container" style="swimlane;" parent="1" vertex="1">
          <mxGeometry x="270" y="270" width="200" height="200" as="geometry" />
        </mxCell>
        <mxCell id="41VKfbadY7B5GUpY9nV5-4" value="" style="swimlane;startSize=0;" parent="1" vertex="1">
          <mxGeometry x="-40" y="220" width="200" height="200" as="geometry" />
        </mxCell>
        <mxCell id="41VKfbadY7B5GUpY9nV5-5" value="" style="swimlane;startSize=0;" parent="1" vertex="1">
          <mxGeometry x="-30" y="230" width="200" height="200" as="geometry" />
        </mxCell>
        <mxCell id="L90GmKd-H_ZN67rbAD6z-1" value="Actor" style="shape=umlActor;verticalLabelPosition=bottom;verticalAlign=top;html=1;outlineConnect=0;" vertex="1" parent="1">
          <mxGeometry x="-320" y="110" width="230" height="180" as="geometry" />
        </mxCell>
      </root>
    </mxGraphModel>
  </diagram>
</mxfile>
